<!DOCTYPE svg PUBLIC "-//W3C//DTD SVG 1.1//EN"
 "http://www.w3.org/Graphics/SVG/1.1/DTD/svg11.dtd">
<svg version="1.1"
 width="900px" height="162px"
 viewBox="0 0 900 162"
 xmlns="http://www.w3.org/2000/svg" shape-rendering="crispEdges"
 stroke-width="1" text-rendering="geometricPrecision">
<polygon fill="white" points="209,7 239,7 239,16 209,16"/>
<text x="225" y="16" textLength="29" font-family="Helvetica" font-size="12" fill="black" text-anchor="middle">

host0
</text>
<polygon fill="white" points="659,7 689,7 689,16 659,16"/>
<text x="675" y="16" textLength="29" font-family="Helvetica" font-size="12" fill="black" text-anchor="middle">

dmsc
</text>
<line x1="225" y1="22" x2="225" y2="50" stroke="black"/>
<line x1="675" y1="22" x2="675" y2="50" stroke="black"/>
<line x1="225" y1="33" x2="675" y2="33" stroke="black"/>
<line x1="675" y1="33" x2="665" y2="39" stroke="black"/>
<polygon fill="white" points="343,23 556,23 556,32 343,32"/>
<text x="344" y="32" textLength="211" font-family="Helvetica" font-size="12" fill="black">
TISCI_MSG_SA2UL_RELEASE_DKEK
</text>
<line x1="225" y1="50" x2="225" y2="78" stroke="black"/>
<line x1="675" y1="50" x2="675" y2="78" stroke="black"/>
<polygon fill="white" points="458,50 892,50 892,72 458,72"/>
<line x1="458" y1="50" x2="892" y2="50" stroke="black"/>
<line x1="458" y1="72" x2="892" y2="72" stroke="black"/>
<line x1="458" y1="50" x2="458" y2="72" stroke="black"/>
<line x1="892" y1="50" x2="892" y2="72" stroke="black"/>
<polygon fill="white" points="599,57 750,57 750,66 599,66"/>
<text x="600" y="66" textLength="149" font-family="Helvetica" font-size="12" fill="black">
Check if host is using DKEK
</text>
<line x1="225" y1="78" x2="225" y2="106" stroke="black"/>
<line x1="675" y1="78" x2="675" y2="106" stroke="black"/>
<polygon fill="white" points="458,78 892,78 892,100 458,100"/>
<line x1="458" y1="78" x2="892" y2="78" stroke="black"/>
<line x1="458" y1="100" x2="892" y2="100" stroke="black"/>
<line x1="458" y1="78" x2="458" y2="100" stroke="black"/>
<line x1="892" y1="78" x2="892" y2="100" stroke="black"/>
<polygon fill="white" points="527,85 821,85 821,94 527,94"/>
<text x="528" y="94" textLength="292" font-family="Helvetica" font-size="12" fill="black">
Program DMSC privid into SA2UL DKEK privid register
</text>
<line x1="225" y1="106" x2="225" y2="134" stroke="black"/>
<line x1="675" y1="106" x2="675" y2="134" stroke="black"/>
<polygon fill="white" points="458,106 892,106 892,128 458,128"/>
<line x1="458" y1="106" x2="892" y2="106" stroke="black"/>
<line x1="458" y1="128" x2="892" y2="128" stroke="black"/>
<line x1="458" y1="106" x2="458" y2="128" stroke="black"/>
<line x1="892" y1="106" x2="892" y2="128" stroke="black"/>
<polygon fill="white" points="552,113 797,113 797,122 552,122"/>
<text x="553" y="122" textLength="243" font-family="Helvetica" font-size="12" fill="black">
Program all zeros into SA2UL DKEK registers
</text>
<line x1="225" y1="134" x2="225" y2="162" stroke="black"/>
<line x1="675" y1="134" x2="675" y2="162" stroke="black"/>
<line x1="675" y1="145" x2="225" y2="145" stroke="black"/>
<line x1="225" y1="145" x2="235" y2="151" stroke="black"/>
<polygon fill="white" points="436,135 463,135 463,144 436,144"/>
<text x="437" y="144" textLength="25" font-family="Helvetica" font-size="12" fill="black">
ACK
</text>
<line x1="225" y1="156" x2="225" y2="162" stroke="black"/>
<line x1="675" y1="156" x2="675" y2="162" stroke="black"/>
</svg>
