<!DOCTYPE svg PUBLIC "-//W3C//DTD SVG 1.1//EN"
 "http://www.w3.org/Graphics/SVG/1.1/DTD/svg11.dtd">
<svg version="1.1"
 width="840px" height="201px"
 viewBox="0 0 840 201"
 xmlns="http://www.w3.org/2000/svg" shape-rendering="crispEdges"
 stroke-width="1" text-rendering="geometricPrecision">
<polygon fill="white" points="105,7 173,7 173,16 105,16"/>
<text x="140" y="16" textLength="67" font-family="Helvetica" font-size="12" fill="black" text-anchor="middle">

R5/SBL/SPL
</text>
<polygon fill="white" points="387,7 451,7 451,16 387,16"/>
<text x="420" y="16" textLength="63" font-family="Helvetica" font-size="12" fill="black" text-anchor="middle">

M3/SYSFW
</text>
<polygon fill="white" points="683,7 715,7 715,16 683,16"/>
<text x="700" y="16" textLength="31" font-family="Helvetica" font-size="12" fill="black" text-anchor="middle">

Notes
</text>
<line x1="140" y1="22" x2="140" y2="50" stroke="black"/>
<line x1="420" y1="22" x2="420" y2="50" stroke="black"/>
<line x1="700" y1="22" x2="700" y2="50" stroke="white"/>
<line x1="70" y1="33" x2="770" y2="33" stroke="black" stroke-dasharray="2,2"/>
<polygon fill="white" points="568,22 832,22 832,44 568,44"/>
<line x1="568" y1="22" x2="832" y2="22" stroke="white"/>
<line x1="568" y1="44" x2="832" y2="44" stroke="white"/>
<line x1="568" y1="22" x2="568" y2="44" stroke="white"/>
<line x1="832" y1="22" x2="832" y2="44" stroke="white"/>
<polygon fill="white" points="637,29 762,29 762,38 637,38"/>
<text x="638" y="38" textLength="123" font-family="Helvetica" font-size="12" fill="black">
End Security Handover
</text>
<line x1="140" y1="50" x2="140" y2="78" stroke="black"/>
<line x1="420" y1="50" x2="420" y2="78" stroke="black"/>
<line x1="700" y1="50" x2="700" y2="78" stroke="white"/>
<line x1="140" y1="61" x2="420" y2="61" stroke="black"/>
<line x1="420" y1="61" x2="410" y2="67" stroke="black"/>
<polygon fill="white" points="204,51 354,51 354,60 204,60"/>
<text x="205" y="60" textLength="148" font-family="Helvetica" font-size="12" fill="black">
Processor Control message
</text>
<polygon fill="white" points="568,50 832,50 832,72 568,72"/>
<line x1="568" y1="50" x2="832" y2="50" stroke="white"/>
<line x1="568" y1="72" x2="832" y2="72" stroke="white"/>
<line x1="568" y1="50" x2="568" y2="72" stroke="white"/>
<line x1="832" y1="50" x2="832" y2="72" stroke="white"/>
<polygon fill="white" points="580,51 819,51 819,60 580,60"/>
<text x="581" y="60" textLength="237" font-family="Helvetica" font-size="12" fill="black">
Processor Control functionality is retaining in
</text>
<polygon fill="white" points="677,62 722,62 722,71 677,71"/>
<text x="678" y="71" textLength="43" font-family="Helvetica" font-size="12" fill="black">
SYSFW
</text>
<line x1="140" y1="78" x2="140" y2="106" stroke="black"/>
<line x1="420" y1="78" x2="420" y2="106" stroke="black"/>
<line x1="700" y1="78" x2="700" y2="106" stroke="white"/>
<line x1="420" y1="89" x2="140" y2="89" stroke="black"/>
<line x1="140" y1="89" x2="150" y2="95" stroke="black"/>
<polygon fill="white" points="266,79 293,79 293,88 266,88"/>
<text x="267" y="88" textLength="25" font-family="Helvetica" font-size="12" fill="black">
ACK
</text>
<line x1="140" y1="106" x2="140" y2="134" stroke="black"/>
<line x1="420" y1="106" x2="420" y2="134" stroke="black"/>
<line x1="700" y1="106" x2="700" y2="134" stroke="white"/>
<line x1="140" y1="117" x2="420" y2="117" stroke="black"/>
<line x1="420" y1="117" x2="410" y2="123" stroke="black"/>
<polygon fill="white" points="171,107 388,107 388,116 171,116"/>
<text x="172" y="116" textLength="215" font-family="Helvetica" font-size="12" fill="black">
Firewall/DKEK/Other Security messages
</text>
<polygon fill="white" points="568,106 832,106 832,128 568,128"/>
<line x1="568" y1="106" x2="832" y2="106" stroke="white"/>
<line x1="568" y1="128" x2="832" y2="128" stroke="white"/>
<line x1="568" y1="106" x2="568" y2="128" stroke="white"/>
<line x1="832" y1="106" x2="832" y2="128" stroke="white"/>
<polygon fill="white" points="587,107 811,107 811,116 587,116"/>
<text x="588" y="116" textLength="222" font-family="Helvetica" font-size="12" fill="black">
This functionality was wiped from SYSFW
</text>
<polygon fill="white" points="655,118 744,118 744,127 655,127"/>
<text x="656" y="127" textLength="87" font-family="Helvetica" font-size="12" fill="black">
during handover
</text>
<line x1="140" y1="134" x2="140" y2="162" stroke="black"/>
<line x1="420" y1="134" x2="420" y2="162" stroke="black"/>
<line x1="700" y1="134" x2="700" y2="162" stroke="white"/>
<line x1="420" y1="145" x2="140" y2="145" stroke="black"/>
<line x1="140" y1="145" x2="150" y2="151" stroke="black"/>
<polygon fill="white" points="262,135 297,135 297,144 262,144"/>
<text x="263" y="144" textLength="33" font-family="Helvetica" font-size="12" fill="black">
NACK
</text>
<line x1="140" y1="162" x2="140" y2="201" stroke="black"/>
<line x1="420" y1="162" x2="420" y2="201" stroke="black"/>
<line x1="700" y1="162" x2="700" y2="201" stroke="white"/>
<polygon fill="white" points="8,162 272,162 272,195 8,195"/>
<line x1="8" y1="162" x2="272" y2="162" stroke="black"/>
<line x1="8" y1="195" x2="272" y2="195" stroke="black"/>
<line x1="8" y1="162" x2="8" y2="195" stroke="black"/>
<line x1="272" y1="162" x2="272" y2="195" stroke="black"/>
<polygon fill="white" points="32,174 247,174 247,183 32,183"/>
<text x="33" y="183" textLength="213" font-family="Helvetica" font-size="12" fill="black">
Firewall configuration by register access
</text>
<polygon fill="white" points="568,162 832,162 832,195 568,195"/>
<line x1="568" y1="162" x2="832" y2="162" stroke="white"/>
<line x1="568" y1="195" x2="832" y2="195" stroke="white"/>
<line x1="568" y1="162" x2="568" y2="195" stroke="white"/>
<line x1="832" y1="162" x2="832" y2="195" stroke="white"/>
<polygon fill="white" points="578,163 821,163 821,172 578,172"/>
<text x="579" y="172" textLength="241" font-family="Helvetica" font-size="12" fill="black">
As the configuration firewall is open, host can
</text>
<polygon fill="white" points="575,174 823,174 823,183 575,183"/>
<text x="576" y="183" textLength="246" font-family="Helvetica" font-size="12" fill="black">
perform firewall configuration by direct register
</text>
<polygon fill="white" points="683,185 716,185 716,194 683,194"/>
<text x="684" y="194" textLength="31" font-family="Helvetica" font-size="12" fill="black">
writes
</text>
<line x1="140" y1="195" x2="140" y2="201" stroke="black"/>
<line x1="420" y1="195" x2="420" y2="201" stroke="black"/>
<line x1="700" y1="195" x2="700" y2="201" stroke="white"/>
</svg>
